<mxfile host="Electron" agent="Mozilla/5.0 (Windows NT 10.0; Win64; x64) AppleWebKit/537.36 (KHTML, like Gecko) draw.io/24.7.5 Chrome/126.0.6478.183 Electron/31.3.0 Safari/537.36" version="24.7.5">
  <diagram name="C4 Context Diagram" id="HzTzjwOVQ8VLb52DezEM">
    <mxGraphModel dx="1861" dy="511" grid="1" gridSize="10" guides="1" tooltips="1" connect="1" arrows="1" fold="1" page="1" pageScale="1" pageWidth="827" pageHeight="1169" math="0" shadow="0">
      <root>
        <mxCell id="0" />
        <mxCell id="1" parent="0" />
        <object placeholders="1" c4Name="Arquiteto de Soluções" c4Type="Person" c4Description="Utiliza o assistente de AI para criar propostas de solução" label="&lt;font style=&quot;font-size: 16px&quot;&gt;&lt;b&gt;Arquiteto de Soluções&lt;/b&gt;&lt;/font&gt;&lt;div&gt;[Person]&lt;/div&gt;&lt;br&gt;&lt;div&gt;&lt;font style=&quot;font-size: 11px&quot;&gt;&lt;font color=&quot;#cccccc&quot;&gt;Utiliza o assistente de AI para criar propostas de solução&lt;/font&gt;&lt;/div&gt;" id="User1">
          <mxCell style="shape=mxgraph.c4.person;whiteSpace=wrap;html=1;fillColor=#6C6477;strokeColor=#4D4D4D;fontColor=#ffffff;align=center;fontSize=11;" parent="1" vertex="1">
            <mxGeometry x="-10" y="180" width="160" height="140" as="geometry" />
          </mxCell>
        </object>
        <object placeholders="1" c4Name="Assistente de AI" c4Type="Software System" c4Description="Compreende a solução a ser projetada e cria uma apresentação no Google Presentation" label="&lt;font style=&quot;font-size: 16px&quot;&gt;&lt;b&gt;Assistente de AI&lt;/b&gt;&lt;/font&gt;&lt;div&gt;[Software System]&lt;/div&gt;&lt;br&gt;&lt;div&gt;&lt;font style=&quot;font-size: 11px&quot;&gt;&lt;font color=&quot;#fff&quot;&gt;Compreende a solução a ser projetada e cria uma apresentação no Google Presentation&lt;/font&gt;&lt;/div&gt;" id="Assistant1">
          <mxCell style="shape=mxgraph.c4.system;whiteSpace=wrap;html=1;fillColor=#FF660D;strokeColor=#0b4884;fontColor=#ffffff;align=center;fontSize=11;" parent="1" vertex="1">
            <mxGeometry x="300" y="200" width="200" height="100" as="geometry" />
          </mxCell>
        </object>
        <object placeholders="1" c4Name="Google Presentation" c4Type="Software System" c4Description="Sistema externo onde a apresentação é criada" label="&lt;font style=&quot;font-size: 16px&quot;&gt;&lt;b&gt;Google Presentation&lt;/b&gt;&lt;/font&gt;&lt;div&gt;[Software System]&lt;/div&gt;&lt;br&gt;&lt;div&gt;&lt;font style=&quot;font-size: 11px&quot;&gt;&lt;font color=&quot;#fff&quot;&gt;Sistema externo onde a apresentação é criada&lt;/font&gt;&lt;/div&gt;" id="GooglePresentation1">
          <mxCell style="rounded=1;whiteSpace=wrap;html=1;labelBackgroundColor=none;fillColor=#8C8496;fontColor=#ffffff;align=center;arcSize=10;strokeColor=#736782;metaEdit=1;resizable=0;points=[[0.25,0,0],[0.5,0,0],[0.75,0,0],[1,0.25,0],[1,0.5,0],[1,0.75,0],[0.75,1,0],[0.5,1,0],[0.25,1,0],[0,0.75,0],[0,0.5,0],[0,0.25,0]];" parent="1" vertex="1">
            <mxGeometry x="860" y="330" width="200" height="100" as="geometry" />
          </mxCell>
        </object>
        <object placeholders="1" c4Name="Google Drive" c4Type="Software System" c4Description="Sistema externo onde a apresentação é salva" label="&lt;font style=&quot;font-size: 16px&quot;&gt;&lt;b&gt;Google Drive&lt;/b&gt;&lt;/font&gt;&lt;div&gt;[Software System]&lt;/div&gt;&lt;br&gt;&lt;div&gt;&lt;font style=&quot;font-size: 11px&quot;&gt;&lt;font color=&quot;#fff&quot;&gt;Sistema externo onde a apresentação é salva&lt;/font&gt;&lt;/div&gt;" id="GoogleDrive1">
          <mxCell style="rounded=1;whiteSpace=wrap;html=1;labelBackgroundColor=none;fillColor=#8C8496;fontColor=#ffffff;align=center;arcSize=10;strokeColor=#736782;metaEdit=1;resizable=0;points=[[0.25,0,0],[0.5,0,0],[0.75,0,0],[1,0.25,0],[1,0.5,0],[1,0.75,0],[0.75,1,0],[0.5,1,0],[0.25,1,0],[0,0.75,0],[0,0.5,0],[0,0.25,0]];" parent="1" vertex="1">
            <mxGeometry x="860" y="30" width="200" height="100" as="geometry" />
          </mxCell>
        </object>
        <mxCell id="edge1" style="edgeStyle=orthogonalEdgeStyle;rounded=0;orthogonalLoop=1;jettySize=auto;html=1;" parent="1" source="User1" target="Assistant1" edge="1">
          <mxGeometry relative="1" as="geometry" />
        </mxCell>
        <mxCell id="edge2" style="edgeStyle=orthogonalEdgeStyle;rounded=0;orthogonalLoop=1;jettySize=auto;html=1;" parent="1" source="Assistant1" target="GooglePresentation1" edge="1">
          <mxGeometry relative="1" as="geometry">
            <Array as="points">
              <mxPoint x="540" y="250" />
              <mxPoint x="540" y="380" />
            </Array>
          </mxGeometry>
        </mxCell>
        <mxCell id="aSUqrl2AVnwQle1ZTiwb-3" value="Cria Apresentação da Proposta" style="edgeLabel;html=1;align=center;verticalAlign=middle;resizable=0;points=[];" vertex="1" connectable="0" parent="edge2">
          <mxGeometry x="0.3726" y="-2" relative="1" as="geometry">
            <mxPoint y="-12" as="offset" />
          </mxGeometry>
        </mxCell>
        <mxCell id="edge3" style="edgeStyle=orthogonalEdgeStyle;rounded=0;orthogonalLoop=1;jettySize=auto;html=1;exitX=1;exitY=0.5;exitDx=0;exitDy=0;" parent="1" source="Assistant1" target="GoogleDrive1" edge="1">
          <mxGeometry relative="1" as="geometry">
            <Array as="points">
              <mxPoint x="540" y="250" />
              <mxPoint x="540" y="70" />
            </Array>
          </mxGeometry>
        </mxCell>
        <mxCell id="aSUqrl2AVnwQle1ZTiwb-2" value="Grava Apresentação no Google Drive" style="edgeLabel;html=1;align=center;verticalAlign=middle;resizable=0;points=[];" vertex="1" connectable="0" parent="edge3">
          <mxGeometry x="0.2474" y="3" relative="1" as="geometry">
            <mxPoint x="53" y="-17" as="offset" />
          </mxGeometry>
        </mxCell>
      </root>
    </mxGraphModel>
  </diagram>
</mxfile>
